<svg xmlns="http://www.w3.org/2000/svg" viewBox="0 0 512 512" role="img" aria-labelledby="title desc">
  <title>Taste</title>
  <desc>Minimal mark for the Taste skill.</desc>
  <defs>
    <linearGradient id="bg" x1="0%" y1="0%" x2="100%" y2="100%">
      <stop offset="0%" stop-color="#F5E6C8"/>
      <stop offset="100%" stop-color="#D9B26F"/>
    </linearGradient>
  </defs>
  <rect width="512" height="512" rx="112" fill="#1C1917"/>
  <rect x="40" y="40" width="432" height="432" rx="88" fill="url(#bg)" opacity="0.08"/>
  <path d="M143 170h226v34H273v138c0 34-10 60-29 78-19 17-46 26-81 26-14 0-29-2-45-6v-35c14 3 26 5 37 5 28 0 49-6 62-18 14-12 20-31 20-57V204h-94z" fill="#F5E6C8"/>
  <path d="M321 285c14 0 25 4 33 13 9 9 13 20 13 34 0 15-4 27-13 36-8 9-20 13-34 13-15 0-27-4-36-13-8-9-13-21-13-36 0-14 5-25 14-34 9-9 21-13 36-13z" fill="#1C1917"/>
  <circle cx="321" cy="332" r="21" fill="#D9B26F"/>
</svg>
